<svg xmlns="http://www.w3.org/2000/svg" width="374.833" height="213.438" viewBox="0 0 374.833 213.438">
  <defs>
    <style>
      .cls-1 {
        fill: #def0f8;
      }

      .cls-2 {
        fill: #5ebeeb;
      }

      .cls-3 {
        fill: #aaddf6;
      }

      .cls-4 {
        fill: #0b3039;
      }

      .cls-36, .cls-37, .cls-5 {
        fill: #fff;
      }

      .cls-6 {
        fill: #00938e;
      }

      .cls-7 {
        fill: #00628d;
      }

      .cls-8 {
        fill: #0086bc;
      }

      .cls-9 {
        fill: #c18666;
      }

      .cls-10 {
        fill: #ff6130;
      }

      .cls-11 {
        opacity: 0.1;
      }

      .cls-12 {
        fill: #123943;
      }

      .cls-13 {
        fill: #cbefff;
      }

      .cls-14 {
        fill: #004b6c;
      }

      .cls-15 {
        fill: #003c57;
      }

      .cls-16 {
        fill: #365461;
      }

      .cls-17 {
        fill: #cae2f0;
      }

      .cls-18 {
        fill: #e8f5fc;
      }

      .cls-19 {
        fill: #ececec;
      }

      .cls-20 {
        fill: #6abee6;
      }

      .cls-21 {
        fill: #ee9d6e;
      }

      .cls-22 {
        fill: #bcc9cf;
      }

      .cls-23 {
        fill: #324e5a;
      }

      .cls-24 {
        fill: #e49164;
      }

      .cls-25 {
        fill: #b4c1c7;
      }

      .cls-26 {
        fill: #a26349;
      }

      .cls-27 {
        fill: #4d8095;
      }

      .cls-28 {
        fill: #00719e;
      }

      .cls-29 {
        fill: #35a1d4;
      }

      .cls-30 {
        fill: #43b1e2;
      }

      .cls-31 {
        fill: #ddf0fb;
      }

      .cls-32 {
        fill: #007773;
      }

      .cls-33 {
        fill: #3297c7;
      }

      .cls-34 {
        fill: #48a6d2;
      }

      .cls-35, .cls-36 {
        opacity: 0.5;
      }

      .cls-37 {
        opacity: 0.8;
      }

      .cls-38 {
        fill: #00807b;
      }

      .cls-39 {
        fill: #c8dbe6;
      }
    </style>
  </defs>
  <g id="AdobeStock_440464935_Converted_" data-name="AdobeStock_440464935 [Converted]" transform="translate(0 -0.428)">
    <rect id="Rectangle_629" data-name="Rectangle 629" class="cls-1" width="374.306" height="212.986" rx="8" transform="translate(0.527 0.428)"/>
    <rect id="Rectangle_630" data-name="Rectangle 630" class="cls-2" width="36.066" height="48.444" transform="translate(294.774 50.091)"/>
    <path id="Path_133" data-name="Path 133" class="cls-3" d="M2831.657,665.154c-.005-.148-.008-.314-.018-.5s-.025-.38-.039-.588c-.007-.107-.014-.214-.02-.321s-.021-.221-.033-.336c-.025-.228-.043-.464-.075-.7s-.068-.484-.107-.728-.091-.489-.136-.729-.107-.477-.169-.706-.124-.451-.2-.661c-.037-.107-.067-.208-.107-.306s-.08-.195-.119-.287-.085-.18-.125-.263l-.062-.122-.066-.115a3.8,3.8,0,0,0-.251-.386c-.045-.055-.083-.107-.122-.146l-.107-.114c-.049-.045-.09-.077-.116-.1l-.018-.014a.332.332,0,0,0-.036-.027.7.7,0,0,0-.37-.12l-.123-.049a6.189,6.189,0,0,0-3.284,0c-.041.017-.079.034-.115.052a.691.691,0,0,0-.363.143l-.018.014c-.027.02-.067.052-.116.1l-.107.114c-.039.044-.076.092-.121.146a3.644,3.644,0,0,0-.257.389l-.066.115-.062.122c-.04.083-.088.171-.125.263s-.078.187-.119.287-.073.2-.107.306c-.078.214-.136.428-.2.661s-.107.466-.169.706-.09.484-.136.729-.068.488-.1.728-.05.476-.075.7c-.011.115-.025.226-.033.336s-.014.214-.02.321c-.014.208-.027.406-.039.588s-.013.349-.018.5-.01.277-.013.383c-.007.214-.011.334-.011.334a.452.452,0,0,0,.9.059v-.015l.032-.321c.011-.107.022-.228.036-.371s.028-.306.05-.481.048-.365.074-.565c.014-.1.027-.2.041-.308s.035-.214.053-.321c.037-.214.07-.442.115-.666s.094-.451.141-.679.113-.447.17-.667.124-.428.195-.628c.017-.047.033-.094.05-.14.09.71.177,1.457.2,1.855.04.661.019,2.362.009,3.067v.481c0,.277.009.666.023,1.131s.038,1.005.066,1.582c.015.29.031.588.047.891s.037.61.055.917l.321,4.888h0a.514.514,0,0,0,1.028-.032s.022-2.449.044-4.9c0-.3.01-.609.014-.91s.013-.594.019-.878c.015-.57.032-1.1.052-1.555s.041-.828.059-1.087c.008-.09.013-.165.018-.226h.5c0,.061.011.136.018.226.018.259.04.634.059,1.087s.037.985.052,1.555c.007.284.013.579.019.878s.009.605.013.91c.022,2.449.044,4.9.044,4.9a.514.514,0,0,0,1.028.03h0s.163-2.444.321-4.888c.019-.307.038-.614.057-.917s.032-.6.047-.891c.029-.576.052-1.116.066-1.582s.021-.855.023-1.131V666h0v-.325c-.016-.711-.049-2.4-.014-3.057.022-.414.107-1.2.2-1.936l.079.221c.071.2.129.414.2.628l.169.667c.047.228.1.456.141.679s.078.45.115.666c.018.107.038.214.052.321s.028.207.041.308c.026.2.051.39.074.565s.035.338.051.481.025.268.036.371l.032.321v.016a.452.452,0,1,0,.9-.06s0-.122-.011-.334A3.248,3.248,0,0,1,2831.657,665.154Z" transform="translate(-2521.592 -587.311)"/>
    <path id="Path_134" data-name="Path 134" class="cls-3" d="M2849.952,626.74a1.381,1.381,0,1,0,1.38,1.381A1.381,1.381,0,0,0,2849.952,626.74Z" transform="translate(-2543.931 -559.737)"/>
    <circle id="Ellipse_21" data-name="Ellipse 21" class="cls-3" cx="2.018" cy="2.018" r="2.018" transform="translate(319.006 70.691) rotate(-22.5)"/>
    <rect id="Rectangle_631" data-name="Rectangle 631" class="cls-3" width="15.069" height="0.399" transform="translate(306.574 71.583)"/>
    <circle id="Ellipse_22" data-name="Ellipse 22" class="cls-3" cx="2.018" cy="2.018" r="2.018" transform="matrix(0.851, -0.526, 0.526, 0.851, 318.862, 83.46)"/>
    <rect id="Rectangle_632" data-name="Rectangle 632" class="cls-3" width="14.243" height="0.399" transform="translate(307.401 83.93)"/>
    <circle id="Ellipse_23" data-name="Ellipse 23" class="cls-3" cx="2.018" cy="2.018" r="2.018" transform="translate(319.006 76.864) rotate(-22.5)"/>
    <rect id="Rectangle_633" data-name="Rectangle 633" class="cls-3" width="14.243" height="0.399" transform="translate(307.401 77.756)"/>
    <rect id="Rectangle_634" data-name="Rectangle 634" class="cls-3" width="32.146" height="12.325" transform="translate(296.734 51.956)"/>
    <rect id="Rectangle_635" data-name="Rectangle 635" class="cls-3" width="32.146" height="4.518" transform="translate(296.734 91.479)"/>
    <path id="Path_135" data-name="Path 135" class="cls-2" d="M2799.422,507.89a2.049,2.049,0,1,1-4.081,0,2.142,2.142,0,0,0-2.041,2.231,2.964,2.964,0,0,0,.3,1.243l.274-.009.357-.01.714-.019.714-.016.714-.014.714-.012h.614l.035-.092.071-.18.071-.179c.024-.06.047-.12.072-.18l.143-.357.145-.357.208-.507.107.535.035.179.034.177.069.357.034.177.033.179.066.357.033.179.032.179.064.357.044.247c.033-.081.068-.164.1-.246l.072-.172.072-.172.143-.344.026-.062h1.75a2.98,2.98,0,0,0,.3-1.236A2.147,2.147,0,0,0,2799.422,507.89Z" transform="translate(-2494.572 -453.597)"/>
    <path id="Path_136" data-name="Path 136" class="cls-2" d="M2802.554,536.865l-.1.294-.061.176-.062.176-.122.352-.125.352-.158.448-.107-.471c-.026-.118-.05-.236-.076-.355l-.075-.355-.074-.355-.037-.177-.036-.178-.072-.356-.036-.177-.035-.179-.035-.181-.09.214-.076.176-.076.177-.077.176-.078.176-.039.091h-.809l-.714-.011-.715-.014-.714-.016-.714-.017-.357-.011-.214-.006a3.719,3.719,0,1,0,7.438.006l-.535.019Z" transform="translate(-2497.581 -478.594)"/>
    <rect id="Rectangle_636" data-name="Rectangle 636" class="cls-2" width="16.941" height="1.157" transform="translate(309.945 56.15)"/>
    <rect id="Rectangle_637" data-name="Rectangle 637" class="cls-2" width="12.387" height="1.157" transform="translate(309.945 58.929)"/>
    <rect id="Rectangle_638" data-name="Rectangle 638" class="cls-4" width="78.597" height="158.233" rx="37.66" transform="translate(52.71 29.347)"/>
    <rect id="Rectangle_639" data-name="Rectangle 639" class="cls-5" width="71.525" height="138.102" rx="33.56" transform="translate(56.246 39.413)"/>
    <path id="Path_137" data-name="Path 137" class="cls-6" d="M593.874,368.75H529.529a3.59,3.59,0,0,0-3.589,3.59v8.313h71.525V372.34A3.59,3.59,0,0,0,593.874,368.75Z" transform="translate(-469.693 -329.337)"/>
    <path id="Path_138" data-name="Path 138" class="cls-7" d="M984.14,1372.728l4.785,30.5h2.217l-3.84-30.761Z" transform="translate(-878.892 -1225.715)"/>
    <path id="Path_139" data-name="Path 139" class="cls-7" d="M844.98,1372.728l4.786,30.5h2.217l-3.84-30.761Z" transform="translate(-754.614 -1225.715)"/>
    <path id="Path_140" data-name="Path 140" class="cls-7" d="M565.59,1403.231H567.8l4.678-30.5-3.048-.258Z" transform="translate(-505.103 -1225.715)"/>
    <path id="Path_141" data-name="Path 141" class="cls-7" d="M704.74,1403.231h2.212l4.677-30.5-3.048-.258Z" transform="translate(-629.372 -1225.715)"/>
    <path id="Path_142" data-name="Path 142" class="cls-8" d="M642.181,1336.144l-44.241-.453v8.128h44.241a3.875,3.875,0,0,0,4.064-3.836h0A3.878,3.878,0,0,0,642.181,1336.144Z" transform="translate(-533.994 -1192.868)"/>
    <path id="Path_143" data-name="Path 143" class="cls-8" d="M579.39,966.124a2.032,2.032,0,0,0-1.987-1.614H563.237a2.032,2.032,0,0,0-1.987,2.448l2.289,10.908a69.365,69.365,0,0,1,.4,26.415l1.195,8.041h15.688l1.433-8.041a69.364,69.364,0,0,0-.4-26.415Z" transform="translate(-501.189 -861.384)"/>
    <path id="Path_144" data-name="Path 144" class="cls-7" d="M582.164,1009.38s-11.331-.459-12.636-.773a1.275,1.275,0,0,1-.917-1.2c-.157-2.836.474-5.284.692-8.1a28.228,28.228,0,0,0-.612-8.261c-.165-1.049-3.636-12.513-5.1-18.478-.239-.972-.473-1.8-.622-2.407a.811.811,0,0,0-1.446-.286,2.016,2.016,0,0,0-.321,1.572l2.289,10.908c1.826,8.7,1.165,17.564.4,26.415-.663,7.7,1.195,8.041,1.195,8.041H582.6a3.649,3.649,0,0,0,3.89-3.208C586.706,1011.37,585.569,1009.571,582.164,1009.38Z" transform="translate(-501.15 -865.871)"/>
    <path id="Path_145" data-name="Path 145" class="cls-9" d="M1060.786,1026.556c-.321.1-.711-.039-.633-.475.043-.24.6-.562.908-.8,1.309-1.005.4-1.283.4-1.283a9.029,9.029,0,0,0-3.359,2.272,6.36,6.36,0,0,0-1.711,2.937,2.042,2.042,0,0,0,1.567,2.618c1.569.449,5.683-.915,5.683-.915l-1.381-4.647A14,14,0,0,0,1060.786,1026.556Z" transform="translate(-943.37 -914.512)"/>
    <path id="Path_146" data-name="Path 146" class="cls-9" d="M1094.875,1027.627h-.008l-.561.34-.565.332-.57.321c-.191.107-.382.206-.573.3-.384.2-.772.382-1.159.543-.194.082-.386.151-.575.214-.094.028-.186.056-.274.075-.041.008-.086.018-.119.022-.015,0-.039.006-.046.005h-.007a.611.611,0,1,0,0,1.22h.09l.068-.008a.539.539,0,0,0,.118-.021c.075-.015.137-.033.2-.051.127-.037.244-.079.36-.122.225-.09.444-.184.65-.288.418-.2.817-.428,1.205-.657.195-.114.385-.234.577-.353l.566-.365.557-.374.551-.381a.449.449,0,0,0-.488-.755Z" transform="translate(-973.235 -917.689)"/>
    <path id="Path_147" data-name="Path 147" class="cls-9" d="M1101.547,1039.264h-.006l-.687.321-.689.321c-.462.2-.925.407-1.39.595s-.936.369-1.406.535c-.235.078-.472.156-.706.222-.116.034-.233.065-.348.093-.057.014-.114.028-.167.037q-.036.009-.073.014h-.031a.1.1,0,0,1,.031,0,.545.545,0,1,0,0,1.091.96.96,0,0,0,.127-.012l.063-.012c.044-.007.079-.016.115-.025.073-.016.138-.035.205-.054.133-.036.262-.075.388-.116.255-.081.5-.171.749-.262.49-.184.969-.385,1.443-.594s.94-.428,1.4-.655l.692-.343.687-.353a.45.45,0,1,0-.4-.806Z" transform="translate(-978.369 -928.1)"/>
    <path id="Path_148" data-name="Path 148" class="cls-9" d="M1101.607,1054.227h-.012l-.7.3c-.235.093-.468.193-.706.281q-.708.272-1.428.5c-.48.152-.963.29-1.449.405-.242.058-.486.107-.727.153-.12.021-.242.042-.359.058l-.176.023-.082.007h-.046l-.144.033a.525.525,0,0,0,.144,1.035h.088l.059-.006a.713.713,0,0,0,.107-.013c.071-.01.14-.02.206-.032.137-.021.269-.048.4-.075.263-.056.521-.118.777-.186.512-.136,1.014-.3,1.51-.466s.984-.361,1.466-.562c.243-.1.479-.206.72-.309l.71-.321a.449.449,0,0,0-.363-.822Z" transform="translate(-978.232 -941.475)"/>
    <path id="Path_149" data-name="Path 149" class="cls-9" d="M1098.467,1069.6h-.006l-.726.243-.728.235c-.487.151-.973.3-1.462.435s-.977.264-1.465.372c-.244.055-.488.107-.728.144-.12.021-.239.038-.354.053-.055,0-.117.014-.165.016a.562.562,0,0,1-.067,0h0a.108.108,0,0,1,.032,0h-.039a.612.612,0,1,0-.133,1.216,1.215,1.215,0,0,0,.148.006h.072a.794.794,0,0,0,.124-.014c.08-.009.145-.021.214-.033.138-.026.273-.052.4-.082.264-.06.521-.126.775-.2.509-.141,1.007-.3,1.5-.466s.982-.343,1.468-.523l.726-.278.722-.284a.449.449,0,1,0-.307-.845Z" transform="translate(-975.287 -955.205)"/>
    <path id="Path_150" data-name="Path 150" class="cls-9" d="M1098.44,1083.92Z" transform="translate(-980.968 -968.024)"/>
    <path id="Path_151" data-name="Path 151" class="cls-9" d="M989.38,1062.945l2.71,3.545s6.046-2.3,6.724-2.528l-.565-3.552Z" transform="translate(-883.571 -947.028)"/>
    <path id="Path_152" data-name="Path 152" class="cls-10" d="M815.86,979.655c-2.8-4.233-4.584-8.021-7.016-12.5l-7.624,4.569c1.892,3.087,7.293,12.892,10.222,15.213,2.735,2.168,5.443.256,8.252-.73a101.974,101.974,0,0,0,10.267-4.3l-1.461-4.464C824.51,978.345,819.874,979.081,815.86,979.655Z" transform="translate(-715.534 -863.751)"/>
    <path id="Path_153" data-name="Path 153" class="cls-11" d="M819.565,1002.611c-2.849.71-5.194,2.87-7.517.877-1.531-1.314-2.016-5.211-1.678-7.844a31.066,31.066,0,0,1-5.125-8.3l-4.025,2.412c1.892,3.087,7.293,12.892,10.222,15.213,2.735,2.168,5.443.256,8.252-.73a101.946,101.946,0,0,0,10.267-4.3l-.414-1.263C826.536,999.677,822.939,1001.769,819.565,1002.611Z" transform="translate(-715.534 -881.773)"/>
    <path id="Path_154" data-name="Path 154" class="cls-12" d="M1014.677,1617.639a2.246,2.246,0,0,0-2.267,2.222,2.268,2.268,0,1,0,4.534,0A2.246,2.246,0,0,0,1014.677,1617.639Z" transform="translate(-904.138 -1444.664)"/>
    <path id="Path_155" data-name="Path 155" class="cls-13" d="M678.779,918.236c-6.709.484-10,10.925-9.773,13.526.481,5.561,1.283,9.419,1.935,13.747.395,2.606-2.966,2.439-3.171,8.214l19.44.349a97.9,97.9,0,0,1,1.084-19.091C689.241,929.285,686.787,917.658,678.779,918.236Z" transform="translate(-596.356 -820.041)"/>
    <path id="Path_156" data-name="Path 156" class="cls-9" d="M800.292,1245.866c-.594-5.042-9.313-6.505-13.489-7.717-3.788-1.1-8.849-3.612-12.221-.584a6.075,6.075,0,0,0,1.733,10.063c1.8.756,3.907.428,5.819.462,1.161.018,2.323.052,3.482.127.823.053,5.508-.073,6.109.474.462.42.381,2.627.462,3.347.172,1.536.335,3.074.5,4.61.321,2.975.629,2.532.942,5.508.509,4.839,2.075,10.141,2.585,14.979.22,2.1-1.137,2.266,2.407,1.617,1.876-.344,1.59-.55,1.583-2.07-.011-2.453.36-12.053.308-17.576C800.472,1254.758,800.8,1250.186,800.292,1245.866Z" transform="translate(-689.987 -1103.95)"/>
    <path id="Path_157" data-name="Path 157" class="cls-14" d="M705.4,1233.426c-.661-4.534-5.948-4.427-15.018-7.666-1.629-.582-.973-2.077-3.941-1.867-3.743.265-16.607-1.719-18.5-.019-3.255,2.923-1.869,10.481,2.91,11.436,1.916.382,24.476,1.919,25.078,2.466.462.42-.758,1.41.564,10.284.587,3.945,2.567,8.921,3.686,14.472,1.752-.005,3.8.079,5.551.065C705.717,1260.724,705.824,1236.374,705.4,1233.426Z" transform="translate(-594.922 -1092.389)"/>
    <path id="Path_158" data-name="Path 158" class="cls-15" d="M698.978,1246.914c.057-2.554.374-5.106.214-7.66a8.2,8.2,0,0,0-2.09-5.454c-2.447-2.5-6.374-4.252-6.776-8.062-1.55-.6-.951-2.051-3.88-1.844-3.743.265-16.607-1.719-18.5-.019-3.255,2.923-1.869,10.481,2.91,11.436,1.917.382,24.476,1.919,25.077,2.466.462.42-.758,1.41.564,10.284.587,3.945,2.567,8.921,3.686,14.472.587,0,1.207.008,1.839.018a54.009,54.009,0,0,1-1.883-7.071A35.209,35.209,0,0,1,698.978,1246.914Z" transform="translate(-594.931 -1092.389)"/>
    <path id="Path_159" data-name="Path 159" class="cls-9" d="M800,1360.67C800.062,1360.67,800.03,1360.654,800,1360.67Z" transform="translate(-714.444 -1215.171)"/>
    <path id="Path_160" data-name="Path 160" class="cls-9" d="M861.926,1577H857.34c.19,1.781.395,3.47.628,4.781.206,1.161.122.978,1.405,1.342a2.039,2.039,0,0,0,2.759-2.246C862.056,1579.489,861.988,1578.207,861.926,1577Z" transform="translate(-765.652 -1408.372)"/>
    <path id="Path_161" data-name="Path 161" class="cls-14" d="M678.885,1213.263c-2.92-.97-8.841-6.459-11.489-4.458-1.524,1.151-2.845,7.008-2.027,9.752.8,2.674,3.025,3.524,7.43,3.8,7.516.48,8.556,2.069,8.662,2.268a31.624,31.624,0,0,1,.362,6.424c0,7.448,2.814,15.408,3.309,18.125l5.962-.088a157.849,157.849,0,0,1,.141-27C691.573,1216.878,683.287,1214.726,678.885,1213.263Z" transform="translate(-593.988 -1079.163)"/>
    <path id="Path_162" data-name="Path 162" class="cls-15" d="M684.995,1236.314c-.385-1.763-.786-3.511-1.036-5.3-.258-1.847-.443-3.711-.525-5.574-.06-1.376.357-2.887-.146-4.221a1.826,1.826,0,0,0-.166-.336l-.021-.022a2.512,2.512,0,0,0-.22-.205c-.013-.01-.041-.029-.083-.057l-.164-.107c-.12-.073-.245-.139-.37-.2a22.287,22.287,0,0,0-4.367-1.342c-1.719-.428-3.459-.811-5.133-1.405-1.186-.422-2.69-.992-3.332-2.168a2.627,2.627,0,0,1,.587-2.995,12.151,12.151,0,0,1,.561-3.708c-1.268-.466-2.409-.569-3.233.053-1.524,1.151-2.845,7.008-2.027,9.752.8,2.674,3.025,3.524,7.43,3.8,7.516.48,8.556,2.069,8.663,2.268a31.633,31.633,0,0,1,.361,6.424c0,7.448,2.814,15.409,3.309,18.125l4.29-.063q-.134-.24-.262-.485A45.386,45.386,0,0,1,684.995,1236.314Z" transform="translate(-593.943 -1079.094)"/>
    <path id="Path_163" data-name="Path 163" class="cls-16" d="M995.057,1608.7c-1.831-.2-5.733-2.6-5.733-2.6a1.542,1.542,0,0,0-1.262-.582,2.419,2.419,0,0,0-1.472.575l-2.341-.005a16.011,16.011,0,0,0-.569,3.715,7.278,7.278,0,0,0,.321,1.552h13.373S997.9,1609.01,995.057,1608.7Z" transform="translate(-878.481 -1433.842)"/>
    <path id="Path_164" data-name="Path 164" class="cls-16" d="M859.694,1608.693c-1.3-.2-2.484-2.594-2.484-2.594s-.134-.579-1.3-.579a6.69,6.69,0,0,0-2.107.573h-1.789a12.305,12.305,0,0,0-.749,3.266c0,1.573.359,2,.359,2h9.715S861.706,1609,859.694,1608.693Z" transform="translate(-760.222 -1433.841)"/>
    <path id="Path_165" data-name="Path 165" class="cls-10" d="M667.441,931.315c-.9-2.725-1.925-5.435-1.8-5.845-2.582.665-5.127,2.56-6.51,3.433-4.623,2.917-2.152,7.345-1.765,11.864.383,4.46,1.875,5.3.909,10.019-.634,3.1-.312,6.011-.856,9.778,3.771-.157,8.909-.31,12.679-.442-.151-8.039-.414-12.136-.41-15.171C669.687,936.286,669.5,937.539,667.441,931.315Z" transform="translate(-586.163 -826.519)"/>
    <path id="Path_166" data-name="Path 166" class="cls-11" d="M664,1036.03s-.678-6.021-1.016-8.128c-.3-1.873-1.233.507-2.286-1.135a8.945,8.945,0,0,0-2.46-2.238,11.064,11.064,0,0,0-2.475-1.359,30.488,30.488,0,0,1,1.069,4.847c.383,4.46,1.875,5.3.909,10.019-.634,3.1-.312,6.011-.856,9.778,3.771-.157,8.908-.31,12.679-.442-.039-2.095-.107-4.266-.151-5.882C667.694,1040.419,665.3,1037.543,664,1036.03Z" transform="translate(-585.63 -913.771)"/>
    <path id="Path_167" data-name="Path 167" class="cls-10" d="M817.12,939.126a44.5,44.5,0,0,1-1.863-4.891c-.594-4.5,2.319-5.358-7.177-9.625,4.986,13.426,3.684,15.213,4.468,34.5q2.264-.051,4.529-.083c-.035-6.017-1-8.7-.772-13.841C816.334,944.523,818.491,942.753,817.12,939.126Z" transform="translate(-721.66 -825.751)"/>
    <path id="Path_168" data-name="Path 168" class="cls-9" d="M750.552,880.173c-.428-2.032-5.16-1.769-5.294.3a17.113,17.113,0,0,1-.248,3.208,4.738,4.738,0,0,0,3.648,3.036c1.34.276,2.888-1.364,2.511-3.522C751.169,883.2,750.669,880.881,750.552,880.173Z" transform="translate(-665.333 -784.821)"/>
    <path id="Path_169" data-name="Path 169" class="cls-11" d="M757.958,880.183c-.329-1.583-3.367-1.772-4.657-.8.276.463.726.948.972,1.428.154.3.312.6.492.883a3.211,3.211,0,0,0,3.867,2.165,3.777,3.777,0,0,0-.057-.656S758.074,880.891,757.958,880.183Z" transform="translate(-672.739 -784.831)"/>
    <path id="Path_170" data-name="Path 170" class="cls-9" d="M701.5,786.28c-1.464,3.046,5.483,9.529,5.483,9.529s3.944,2.535,7.453.413c3.834-2.313-2.522-13.1-2.522-13.1S702.641,783.9,701.5,786.28Z" transform="translate(-626.295 -699.393)"/>
    <path id="Path_171" data-name="Path 171" class="cls-12" d="M706.927,768.1c-3.363-.734-5.882.214-8.421,2.421-2.9,2.529-1.878,7.19.883,9.488,1.936,1.612,2.781,1.406,2.781,1.406l.082-1.571c-.583.4-1.867-.518-1.711-2.263s1.9-.279,1.9-.279a2.985,2.985,0,0,1,.33-2.646c.568-1.069,6.484-2.532,6.484-2.532S710.178,768.807,706.927,768.1Z" transform="translate(-622.249 -685.758)"/>
    <path id="Path_172" data-name="Path 172" class="cls-12" d="M676.316,803.862c-1.129,2.318,1.835,7.759,4,5.9,2.767-2.374.114-6.839.114-6.839S677.45,801.546,676.316,803.862Z" transform="translate(-603.765 -716.716)"/>
    <path id="Path_173" data-name="Path 173" class="cls-11" d="M785.83,928.439l2.016,1.911a21.083,21.083,0,0,0,.982-2.646,5.94,5.94,0,0,0-.252-2.264A6.633,6.633,0,0,1,785.83,928.439Z" transform="translate(-701.79 -826.493)"/>
    <path id="Path_174" data-name="Path 174" class="cls-11" d="M734.33,927.43a7.4,7.4,0,0,0,4.682,5.312l.63-2.494A8.221,8.221,0,0,1,734.33,927.43Z" transform="translate(-655.797 -828.27)"/>
    <path id="Path_175" data-name="Path 175" class="cls-13" d="M786.428,914.77s.011,3.208-1.818,4.107l1.982,1.312a12.953,12.953,0,0,0,1.069-2.345,4.478,4.478,0,0,0-.174-1.932Z" transform="translate(-700.7 -816.964)"/>
    <path id="Path_176" data-name="Path 176" class="cls-13" d="M735.73,911.42l-1.35,1.711c1.42,4.256,4.483,4.826,4.483,4.826l.893-2.074C736.455,915.616,735.73,911.42,735.73,911.42Z" transform="translate(-655.842 -813.972)"/>
    <path id="Path_177" data-name="Path 177" class="cls-9" d="M745.012,1209.231a14,14,0,0,0-.963-1.021,12.8,12.8,0,0,0-1.069-.925c-.187-.146-.38-.286-.581-.42h0a2.368,2.368,0,0,0-.483-.328,51.511,51.511,0,0,0-5.164-1.56l-5.651-3.756-3.571,3.11,7.969,3.422c.264,1.68,2.9,2.3,3.63,2.506.141.089.281.18.416.276a6.344,6.344,0,0,1,1.207,1.106,7.976,7.976,0,0,1,.922,1.4h0a.462.462,0,0,0,.826-.413,9.037,9.037,0,0,0-.946-1.621,7.481,7.481,0,0,0-1.139-1.2,8.065,8.065,0,0,1,1,.768,6.812,6.812,0,0,1,1.011,1.149,7.259,7.259,0,0,1,.742,1.355v.008a.461.461,0,0,0,.856-.335,8.224,8.224,0,0,0-.749-1.585,7.917,7.917,0,0,0-1.087-1.39,8.458,8.458,0,0,0-.625-.581l.06-.029c.1.072.194.144.289.22a10.03,10.03,0,0,1,.956.867,11.958,11.958,0,0,1,1.594,2.077h0a.462.462,0,0,0,.8-.459,13.043,13.043,0,0,0-1.585-2.353,10.919,10.919,0,0,0-.887-.923l.067-.033q.248.2.487.41a12.783,12.783,0,0,1,.938.913c.3.321.58.656.856,1l.009.011a.461.461,0,1,0,.735-.557C745.6,1209.958,745.318,1209.584,745.012,1209.231Z" transform="translate(-649.725 -1072.779)"/>
    <path id="Path_178" data-name="Path 178" class="cls-10" d="M651.667,985.57s-6.439-5.252-6.864-3.4c-1.032,4.507-1.7,19.764-1.7,19.764a4.593,4.593,0,0,0,2.3,4.084l14.651,6.884,2.229-3.529-10.677-9.724Z" transform="translate(-574.33 -876.802)"/>
    <path id="Path_179" data-name="Path 179" class="cls-11" d="M648.536,1009.4c-1.069-.635-2.308-.993-3.084-2.032a6.815,6.815,0,0,1-.927-4.073c0-3.36-.048-11.683.3-17.917a.014.014,0,0,0,0,.006c-1.032,4.507-1.7,19.764-1.7,19.764a4.593,4.593,0,0,0,2.3,4.084l14.651,6.884.165-.262a34.014,34.014,0,0,1-4.086-1.885C653.542,1012.573,651.083,1010.917,648.536,1009.4Z" transform="translate(-574.348 -880.022)"/>
    <circle id="Ellipse_24" data-name="Ellipse 24" class="cls-3" cx="9.813" cy="9.813" r="9.813" transform="translate(247.467 60.531) rotate(-45)"/>
    <path id="Path_180" data-name="Path 180" class="cls-2" d="M2356.541,468.6a10.441,10.441,0,1,0,10.441,10.441A10.441,10.441,0,0,0,2356.541,468.6Zm0,19.626a9.187,9.187,0,1,1,9.186-9.186A9.186,9.186,0,0,1,2356.541,488.227Z" transform="translate(-2095.197 -418.509)"/>
    <rect id="Rectangle_640" data-name="Rectangle 640" class="cls-2" width="0.813" height="1.93" transform="translate(260.937 50.794)"/>
    <rect id="Rectangle_641" data-name="Rectangle 641" class="cls-2" width="0.813" height="1.93" transform="translate(260.937 68.232)"/>
    <rect id="Rectangle_642" data-name="Rectangle 642" class="cls-2" width="1.93" height="0.813" transform="translate(269.098 60.072)"/>
    <rect id="Rectangle_643" data-name="Rectangle 643" class="cls-2" width="1.93" height="0.813" transform="translate(251.659 60.072)"/>
    <path id="Path_181" data-name="Path 181" class="cls-2" d="M2413.984,512.794l-2.791-1.99-.393.55,3.86,2.753V507.13h-.676Z" transform="translate(-2152.978 -452.918)"/>
    <path id="Path_182" data-name="Path 182" class="cls-2" d="M2436.461,558.1a.868.868,0,1,0,.615.255A.87.87,0,0,0,2436.461,558.1Z" transform="translate(-2175.117 -498.437)"/>
    <rect id="Rectangle_644" data-name="Rectangle 644" class="cls-17" width="2.805" height="52.681" transform="translate(195.224 134.899)"/>
    <rect id="Rectangle_645" data-name="Rectangle 645" class="cls-18" width="2.805" height="52.681" transform="translate(192.419 134.899)"/>
    <rect id="Rectangle_646" data-name="Rectangle 646" class="cls-17" width="2.805" height="52.681" transform="translate(159.096 134.899)"/>
    <rect id="Rectangle_647" data-name="Rectangle 647" class="cls-18" width="2.805" height="52.681" transform="translate(156.291 134.899)"/>
    <path id="Path_183" data-name="Path 183" class="cls-5" d="M1880.99,964.049c-.694-.971-4.2,9.431-5.809,14.482-4.463,2.64-9.106,5.587-14.42,8.73l3.3,3.451c5.359-1.87,14.1-2.9,16-4.65,2.627-1.4,2.413-2.714,2.98-4.671,1.68-5.791,3.822-12.414,5.216-18.271l-5.145.17C1881.64,964.147,1882.41,963.121,1880.99,964.049Z" transform="translate(-1661.762 -860.143)"/>
    <path id="Path_184" data-name="Path 184" class="cls-19" d="M1909.706,960.651c-.995.6-2.02,1.176-3.034,1.757a1.3,1.3,0,0,1,.226.107,1.385,1.385,0,0,1,.492,1.876,8.884,8.884,0,0,0-1.176,3.82c-.208,1.485-.395,2.966-.642,4.446-.321,1.842-.562,3.691-.843,5.538a11.257,11.257,0,0,1-1.129,3.573,9.836,9.836,0,0,1-5.62,4.327,44.311,44.311,0,0,1-8.25,2.022l.206.391c5.359-1.869,14.1-2.9,16-4.65,2.627-1.4,2.413-2.714,2.981-4.671,1.68-5.791,3.822-12.414,5.216-18.271l-4.414-.265Z" transform="translate(-1687.634 -857.937)"/>
    <rect id="Rectangle_648" data-name="Rectangle 648" class="cls-20" width="36.781" height="10.238" transform="translate(158.19 135.996)"/>
    <path id="Path_185" data-name="Path 185" class="cls-21" d="M1807.143,1185.327a39.022,39.022,0,0,0-5.833-.878c-1.311.092-5.6,2.472-5.6,2.472s-.23,1.069,1.614,1.056c.743,0,10.962.761,11.146.164S1809.221,1185.846,1807.143,1185.327Z" transform="translate(-1603.663 -1057.799)"/>
    <g id="Group_157" data-name="Group 157" transform="translate(196.475 107.063)">
      <path id="Path_186" data-name="Path 186" class="cls-8" d="M2072.431,1001.351a1.946,1.946,0,0,0-.989.405,2.98,2.98,0,0,0-1.033,1.983c-.049.4-.156,1.2-.214,1.6-1.283,8.9-3.323,14.212-5.913,22.779-.049.178-.221.8-.264.962a123.814,123.814,0,0,0-2.478,19.029h27.967c.043-1.283-.186-6.288-.107-7.576a65.476,65.476,0,0,1,1.464-11.453c.043-.171.214-.785.264-.962,2.153-7.1,3.9-10.855,5.189-18.207.3-1.731.6-3.591.828-5.326a11.2,11.2,0,0,1,.214-1.355,2.349,2.349,0,0,1,2.1-1.884C2098.583,1001.367,2072.818,1001.293,2072.431,1001.351Z" transform="translate(-2037.544 -1001.328)"/>
      <path id="Path_187" data-name="Path 187" class="cls-8" d="M2416.12,1001.45Z" transform="translate(-2354.204 -1001.437)"/>
      <path id="Path_188" data-name="Path 188" class="cls-8" d="M1970.005,1400.88h27.967q.715-.014,1.431-.014h-27.967Q1970.723,1400.863,1970.005,1400.88Z" transform="translate(-1955.669 -1358.137)"/>
      <path id="Path_189" data-name="Path 189" class="cls-8" d="M1880.9,1400.84h-27.967c-.514,0-15.215.989-15.732,1,0,0-.241,7.953.528,8.189a1.706,1.706,0,0,0,.47.07s16.9,2.567,30.626,2.567c8.6,0,24.463-2.131,24.463-2.131C1893.022,1410.542,1878.891,1400.84,1880.9,1400.84Z" transform="translate(-1837.167 -1358.114)"/>
    </g>
    <rect id="Rectangle_649" data-name="Rectangle 649" class="cls-7" width="2.644" height="10.057" transform="translate(228.135 161.615)"/>
    <path id="Path_190" data-name="Path 190" class="cls-7" d="M2166.4,1650.482l-18.592-4.331-2.234-.321v3.7l20.071,3.051v2.71h1.671v-3.653A1.185,1.185,0,0,0,2166.4,1650.482Z" transform="translate(-1916.113 -1469.841)"/>
    <path id="Path_191" data-name="Path 191" class="cls-7" d="M2155.085,1650.482l-8.495-4.331-1.021-.321v3.7l8.288,3.051v2.71h1.646v-3.653A1.371,1.371,0,0,0,2155.085,1650.482Z" transform="translate(-1916.113 -1469.841)"/>
    <path id="Path_192" data-name="Path 192" class="cls-7" d="M1943.2,1650.455a1.184,1.184,0,0,0-.916,1.153v3.653h1.672v-2.71l20.069-3.051v-3.7l-2.233.321Z" transform="translate(-1734.563 -1469.814)"/>
    <path id="Path_193" data-name="Path 193" class="cls-7" d="M2053.108,1650.455a1.363,1.363,0,0,0-.418,1.153v3.653h1.646v-2.71l8.287-3.051v-3.7l-1.02.321Z" transform="translate(-1833.166 -1469.814)"/>
    <path id="Path_194" data-name="Path 194" class="cls-7" d="M2125.917,1658.363a1.541,1.541,0,0,0,3.049,0l.642-4.363h-4.338Z" transform="translate(-1897.984 -1477.137)"/>
    <rect id="Rectangle_650" data-name="Rectangle 650" class="cls-7" width="1.364" height="3.773" transform="translate(228.776 180.716)"/>
    <path id="Path_195" data-name="Path 195" class="cls-7" d="M2224.86,1712.33a2.239,2.239,0,1,0,2.239,2.24A2.24,2.24,0,0,0,2224.86,1712.33Z" transform="translate(-1984.923 -1529.229)"/>
    <path id="Path_196" data-name="Path 196" class="cls-7" d="M1918.719,1712.33a2.239,2.239,0,1,0,2.24,2.24A2.239,2.239,0,0,0,1918.719,1712.33Z" transform="translate(-1711.523 -1529.229)"/>
    <path id="Path_197" data-name="Path 197" class="cls-7" d="M2028.889,1712.33a2.239,2.239,0,1,0,2.24,2.24A2.239,2.239,0,0,0,2028.889,1712.33Z" transform="translate(-1809.911 -1529.229)"/>
    <rect id="Rectangle_651" data-name="Rectangle 651" class="cls-7" width="3.37" height="4.479" rx="1.685" transform="translate(227.773 183.101)"/>
    <path id="Path_198" data-name="Path 198" class="cls-7" d="M2335.029,1712.33a2.239,2.239,0,1,0,2.24,2.24A2.239,2.239,0,0,0,2335.029,1712.33Z" transform="translate(-2083.311 -1529.229)"/>
    <rect id="Rectangle_652" data-name="Rectangle 652" class="cls-7" width="4.467" height="8.038" transform="translate(227.224 168.272)"/>
    <path id="Path_199" data-name="Path 199" class="cls-22" d="M2016.242,909.789c-3.026-.181-2.684,1.325-8.481,4.646-3.3,1.888-3.977,20.319-4.187,30.034-.081,3.758-6.517,13.515-4.857,18.822l24.478-.987c8.04-1.677,5.33-15.95,5.33-18.591,0-6.034,1.581-10.813,2.7-20.672S2020.568,910.049,2016.242,909.789Z" transform="translate(-1784.721 -812.502)"/>
    <path id="Path_200" data-name="Path 200" class="cls-4" d="M1803.079,1697.875s-4.678,2.781-6.872,3.01c-3.4.357-2.781,2.994-2.781,2.994l16.033-.043a6.7,6.7,0,0,0,.384-1.676,18.107,18.107,0,0,0-.682-4.3Z" transform="translate(-1601.589 -1516.306)"/>
    <path id="Path_201" data-name="Path 201" class="cls-4" d="M1982.441,1698.049s-1.347,2.781-2.819,3.005c-2.282.353-1.86,2.994-1.86,2.994l11.023-.03s.406-.375.406-2.2a14.5,14.5,0,0,0-.849-3.781Z" transform="translate(-1766.224 -1516.467)"/>
    <path id="Path_202" data-name="Path 202" class="cls-16" d="M1815.625,1264.234c.3,1.14,5.866,30.148,5.866,30.148h7.922s-.214-12.963-.327-20.471a23.049,23.049,0,0,0-1.711-8.876l12.633-2.13,1.515-17.4s-16.1,7.445-21.461,9.144C1817.149,1255.565,1814.554,1260.2,1815.625,1264.234Z" transform="translate(-1621.234 -1112.324)"/>
    <path id="Path_203" data-name="Path 203" class="cls-23" d="M1845.65,1255.42a7.567,7.567,0,0,1,2.681,2.913,15.43,15.43,0,0,1,1.46,5.969c.163,2,.117,4.012.221,6.016.062,1.192.255,2.342.417,3.529.236,1.721.456,2.621.634,4.349.586,5.643.93,10.622-.388,16.185h5.775s-.214-12.963-.327-20.471a23.049,23.049,0,0,0-1.711-8.876l12.633-2.13,1.515-17.4s-16.1,7.445-21.461,9.144A4.8,4.8,0,0,0,1845.65,1255.42Z" transform="translate(-1648.268 -1112.324)"/>
    <path id="Path_204" data-name="Path 204" class="cls-16" d="M1964.87,1298.8c.022.17,5.255,30.652,5.255,30.652h7.362s.925-16.355.478-22.334a69.731,69.731,0,0,0-1.05-8.16l12.894-1.774,2.617-12.418-23.131,4.345C1965.616,1290.356,1964.45,1295.613,1964.87,1298.8Z" transform="translate(-1754.665 -1147.394)"/>
    <path id="Path_205" data-name="Path 205" class="cls-23" d="M2073.03,1290.576a1.255,1.255,0,0,1-1.546.943l-.035.015a22.274,22.274,0,0,0-5.146,2.509c-.025.017-.078.059-.115.087s-.084.068-.125.107c-.145.126-.289.252-.427.387-.12.118-.237.24-.348.366-.035.041-.069.081-.107.122a2,2,0,0,0-.128.165,9.2,9.2,0,0,0-.535.908c-.014.027-.041.085-.058.123s-.034.085-.049.127c-.079.225-.154.449-.214.679a9.135,9.135,0,0,0-.222,1.085c.01-.045-.041.428-.047.5-.019.247-.031.5-.039.742a32.059,32.059,0,0,0,.2,3.773c.27,2.995.535,5.171.71,8.175a80.123,80.123,0,0,1-.4,14.2c-.141,1.283-.3,2.567-.494,3.844h2.069s.925-16.355.478-22.334a69.624,69.624,0,0,0-1.05-8.16l12.895-1.774,2.617-12.418-6.888,1.65C2073.743,1287.8,2073.379,1289.182,2073.03,1290.576Z" transform="translate(-1843.161 -1147.376)"/>
    <path id="Path_206" data-name="Path 206" class="cls-5" d="M2021.859,920a18.018,18.018,0,0,0-4.015,6.1c-1.054,3.063-5.711,6.98-6.394,11.3-.7,4.431.749,13.951-.186,17.4-1.115,4.1-7.994,1.931-13.235,7.6-.772.835,7.767-1.68,9.578,3.074a8.345,8.345,0,0,1-1.05,7.714l14.311-.776c8.714-2.239,8.485-8.473,8.407-18.968-.058-7.714,2.661-10.631,2.531-19.425C2031.676,925.064,2026.483,922.344,2021.859,920Z" transform="translate(-1784.307 -821.634)"/>
    <path id="Path_207" data-name="Path 207" class="cls-19" d="M2087.095,1273.328a65.934,65.934,0,0,1-7.855,2.056,8.337,8.337,0,0,1-1.06,7.685l14.9-.773c7.651-1.967,8.408-7.012,8.425-15.317a36.075,36.075,0,0,1-5.4,2.8C2093.15,1271.081,2090.163,1272.31,2087.095,1273.328Z" transform="translate(-1855.93 -1131.507)"/>
    <path id="Path_208" data-name="Path 208" class="cls-19" d="M2056.132,1036.057c-.015,0-7.694-7.155-7.785-6.96-.435.942-4.848,13.172-4.848,13.172a15.224,15.224,0,0,0-4.625,1.691c.156,3.726.245,6.569-.219,8.273-.843,3.1-5.511,3.293-10,5.648,1.889-.164,3.783-.228,5.677-.321,4.879-.227,9.877.044,14.626-1.283a1.336,1.336,0,0,1,.749-.008,6.063,6.063,0,0,0,.566-.544,10.655,10.655,0,0,0,1.362-1.95c1.07-1.864,6.337-15.2,6.651-17.572C2058.445,1034.933,2056.038,1036.9,2056.132,1036.057Z" transform="translate(-1811.697 -919.061)"/>
    <path id="Path_209" data-name="Path 209" class="cls-21" d="M1917.062,1197.372s-5.746-1.131-7.3-.742c-1.619.406-5.748,3.4-5.748,3.4s-1.738,1.069-.337,1.069l6.254-.923a12.175,12.175,0,0,0,4.309.818C1917.513,1200.816,1919.632,1198.073,1917.062,1197.372Z" transform="translate(-1699.605 -1068.607)"/>
    <path id="Path_210" data-name="Path 210" class="cls-5" d="M1905.708,924.895c-1.925,4.312.986,16.431-.079,26.085-.414,3.743-7.532,5.668-15.958,9.6a22.48,22.48,0,0,1,6.755,1.069s8.707-4.112,10.383-6.32c3.306-4.355,1.591-13.384,1.818-16.177,1.711-20.909,6.573-20.628,7.02-21.411C1913.816,918.716,1907.393,921.112,1905.708,924.895Z" transform="translate(-1687.58 -819.616)"/>
    <path id="Path_211" data-name="Path 211" class="cls-21" d="M2011.85,1202.749l8.144.942v-4.371l-7.481.676Z" transform="translate(-1796.693 -1071.082)"/>
    <path id="Path_212" data-name="Path 212" class="cls-5" d="M2054.334,986.57a10.213,10.213,0,0,0-1.406.807l-4.612,17.847-15.186,4.287.107,4.156,17.615.029c2.267,0,4.149-.668,5.34-2.981,1.772-3.443,5.251-8.876,6.659-14.493C2059.711,993.284,2057.215,989.748,2054.334,986.57Z" transform="translate(-1815.698 -881.085)"/>
    <path id="Path_213" data-name="Path 213" class="cls-21" d="M2140.215,843.243l-.828-1.8s-6.936,2.139-6.738,4.252a23.725,23.725,0,0,1-.44,4.745,23.3,23.3,0,0,0,.65,3.621l7.837-4.2C2138.875,845.725,2140.215,843.243,2140.215,843.243Z" transform="translate(-1904.182 -751.476)"/>
    <path id="Path_214" data-name="Path 214" class="cls-24" d="M2137.79,846.59c-2.032.771-5.295,2.246-5.16,3.7a23.732,23.732,0,0,1-.439,4.745,1.637,1.637,0,0,0,.185.723c4.844-.935,5.418-3.393,5.431-3.463a5.956,5.956,0,0,0,.066-.672,28.672,28.672,0,0,0,.021-3.193C2137.866,847.817,2137.83,847.2,2137.79,846.59Z" transform="translate(-1904.164 -756.075)"/>
    <path id="Path_215" data-name="Path 215" class="cls-19" d="M2128.663,895.082c-7.185,12.636-6.432,16.9-6.432,16.9.978-2.864,8.761-11.057,8.761-11.057l-.856-2.422,2.338-.742.331-5.015-1.949-3.263S2131.085,890.819,2128.663,895.082Z" transform="translate(-1895.25 -794.378)"/>
    <path id="Path_216" data-name="Path 216" class="cls-5" d="M2128.663,895.082c-7.185,12.636-6.432,16.9-6.432,16.9.978-2.864,8.137-11.306,8.137-11.306l-.855-2.422,2.338-.742.954-4.765-1.949-3.263S2131.085,890.819,2128.663,895.082Z" transform="translate(-1895.25 -794.378)"/>
    <path id="Path_217" data-name="Path 217" class="cls-19" d="M2069.443,918.59l1.2.416-2.049,2.3-.77,13.145c2.8-12.38,6.889-18.882,6.889-18.882l.187-1.09-1.069-.134A35.448,35.448,0,0,0,2069.443,918.59Z" transform="translate(-1846.678 -816.589)"/>
    <path id="Path_218" data-name="Path 218" class="cls-5" d="M2069.394,918.59l1.194.416-2.049,2.3-1.2,13.788c2.8-12.381,6.945-19.526,6.945-19.526l.187-1.09-1.069-.134A24.338,24.338,0,0,0,2069.394,918.59Z" transform="translate(-1846.249 -816.589)"/>
    <path id="Path_219" data-name="Path 219" class="cls-7" d="M1730.03,1209.19v1.843h28.484v-1.255l-8.154-.587Z" transform="translate(-1545.013 -1079.897)"/>
    <path id="Path_220" data-name="Path 220" class="cls-7" d="M2126.668,1001.44c-1.99.036-2.281,2.3-2.438,4-.2,1.46-.472,3.1-.724,4.571-1.317,7.694-3.242,11.736-5.454,19.174-1.195,5.037-1.638,15.319-1.638,15.319s-15.828,1.757-20.933,2.246a3.48,3.48,0,0,0-1.24,6.737c.176.094,25.736.5,25.988.448,3.612-.221,4.63-3.456,3.963-6.98a77.606,77.606,0,0,1-.06-15.766c1.562-8.05,2.837-12.645,3.473-20.832.113-1.568.269-3.359.321-4.932C2128.025,1002.41,2128.175,1001.44,2126.668,1001.44Z" transform="translate(-1868.257 -894.365)"/>
    <path id="Path_221" data-name="Path 221" class="cls-25" d="M2145.122,882.69s-2.709,4.908-4.967,5.687l-1.925,2.52,2.306-1.014a12.089,12.089,0,0,0,1.2,1.364c.052-.078,2.674-3.743,3.224-5.494s.437-1.94.437-1.94Z" transform="translate(-1909.558 -788.314)"/>
    <path id="Path_222" data-name="Path 222" class="cls-22" d="M2145.122,882.69s-2.709,4.908-4.967,5.687l-1.925,2.52,2.492-1.471a17.473,17.473,0,0,0,1.012,1.818c.049-.081,2.674-3.743,3.224-5.494s.437-1.94.437-1.94Z" transform="translate(-1909.558 -788.314)"/>
    <path id="Path_223" data-name="Path 223" class="cls-25" d="M2121.631,914.444l-1.069-.134a12.786,12.786,0,0,0-.4,3.743l1.111-.48.813,1.568A6.828,6.828,0,0,1,2121.631,914.444Z" transform="translate(-1893.411 -816.553)"/>
    <path id="Path_224" data-name="Path 224" class="cls-22" d="M2121.654,914.434l-1.093-.124a12.786,12.786,0,0,0-.4,3.743l1.274-.939.186.579A8.365,8.365,0,0,1,2121.654,914.434Z" transform="translate(-1893.411 -816.553)"/>
    <path id="Path_225" data-name="Path 225" class="cls-22" d="M2133.93,945.89a6.325,6.325,0,0,0,.464,1.448Z" transform="translate(-1905.718 -844.755)"/>
    <path id="Path_226" data-name="Path 226" class="cls-21" d="M2114.382,782.684a40.657,40.657,0,0,0-8.932-2.2s-.287,1.424-.625,2.836c-.749,3.148-.57,8.876.382,10.54,1.262,2.211,5.93.278,5.93.278,2.382-1.548,3.906-6.705,3.906-6.705S2118.106,784.245,2114.382,782.684Z" transform="translate(-1879.311 -697.035)"/>
    <path id="Path_227" data-name="Path 227" class="cls-26" d="M2118.312,740.248c-3.494-.734-7.658.1-8.479,1.171-.327.428-1.359,3.761.436,4.08s5.192.464,6.32,1.005c.535.256.132,2.269.227,2.821a17.931,17.931,0,0,0,.611,1.845l1.973.081-.191,3.538.023.444a10.4,10.4,0,0,0,3.068-4.751c.469-1.634,1.258-4.231.642-6.558C2122.6,742.625,2120.192,740.643,2118.312,740.248Z" transform="translate(-1883.668 -660.857)"/>
    <path id="Path_228" data-name="Path 228" class="cls-7" d="M2197.319,897.65c.174.363.345.728.493,1.1a4.91,4.91,0,0,1,.8,1.727,6.184,6.184,0,0,1-1.209,4.6,19.4,19.4,0,0,0-1.367,2.588,1.189,1.189,0,0,1,.405.278,19.211,19.211,0,0,1,1.36-2.594,6.608,6.608,0,0,0,1.277-4.982A4.6,4.6,0,0,0,2197.319,897.65Z" transform="translate(-1961.185 -801.674)"/>
    <path id="Path_229" data-name="Path 229" class="cls-27" d="M2128.813,1038.324c-.019.044-1.9,4.4-3.524,5.751-1,.835-3.624.45-3.651.446l-.229-.034-.07.458.229.035a10,10,0,0,0,2.29.051,3.313,3.313,0,0,0,1.727-.6c1.711-1.423,3.575-5.742,3.653-5.925l.091-.214-.428-.183Z" transform="translate(-1894.474 -927.113)"/>
    <path id="Path_230" data-name="Path 230" class="cls-27" d="M2118.026,1096.039l-.635-.07a.418.418,0,0,0-.461.371h0a.419.419,0,0,0,.37.461l.642.069a.418.418,0,1,0,.09-.832Z" transform="translate(-1890.534 -978.783)"/>
    <path id="Path_231" data-name="Path 231" class="cls-27" d="M2128.55,1017.692a28.887,28.887,0,0,0-3.057,6.126,2.705,2.705,0,0,0,1.106,2.771,7.853,7.853,0,0,0,1.546,1.083l.207.107.214-.412-.206-.107c-.03-.015-2.964-1.537-2.42-3.306a28.939,28.939,0,0,1,3-6.006l.127-.193-.386-.256Z" transform="translate(-1898.105 -908.707)"/>
    <path id="Path_232" data-name="Path 232" class="cls-27" d="M2149.12,1106.953l-.582-.266a.418.418,0,1,0-.348.76l.581.266a.418.418,0,0,0,.349-.76Z" transform="translate(-1918.226 -988.318)"/>
    <path id="Path_233" data-name="Path 233" class="cls-7" d="M2156.065,989.406c-.937-.331-2,.131-3.168,1.375a12.242,12.242,0,0,0-1.412,1.86l-.166.278.557.333.166-.279c.591-.987,2.423-3.444,3.806-2.955a.793.793,0,0,1,.486.469c.445,1.069-.447,3.4-.828,4.2l-.139.293.586.277.139-.293c.061-.128,1.486-3.176.839-4.728A1.423,1.423,0,0,0,2156.065,989.406Z" transform="translate(-1921.248 -883.525)"/>
    <path id="Path_234" data-name="Path 234" class="cls-16" d="M2055.841,1003.508a1.035,1.035,0,0,0-.5-.249c-.616.026-1.254.856-1.521,1.694-.144.451-.264.838-.122,1.107a1.011,1.011,0,0,0,.445.308.678.678,0,0,0,.31.054,1.294,1.294,0,0,0,.683-.267,2.088,2.088,0,0,0,.252-.214,2.684,2.684,0,0,0,.664-1.081,1.553,1.553,0,0,0,.017-1.055A.7.7,0,0,0,2055.841,1003.508Z" transform="translate(-1834.008 -895.989)"/>
    <path id="Path_235" data-name="Path 235" class="cls-27" d="M2055.007,1004.474a1.956,1.956,0,0,0-1.446,1.42c-.243.761.01,1.36.567,1.337a1.956,1.956,0,0,0,1.446-1.42C2055.816,1005.05,2055.563,1004.451,2055.007,1004.474Z" transform="translate(-1833.861 -897.074)"/>
    <path id="Path_236" data-name="Path 236" class="cls-16" d="M2054.013,1003.177a2.172,2.172,0,0,0-1.6,1.563c-.271.835.017,1.5.633,1.471a1.3,1.3,0,0,0,.683-.267,2.267,2.267,0,0,0,.252-.214,2.693,2.693,0,0,0,.664-1.081,1.553,1.553,0,0,0,.017-1.055A.642.642,0,0,0,2054.013,1003.177Zm.414,1.479a2.214,2.214,0,0,1-.547.893,1.2,1.2,0,0,1-.749.385c-.495.021-.72-.519-.5-1.2a2.158,2.158,0,0,1,.749-1.069,1.016,1.016,0,0,1,.542-.214.508.508,0,0,1,.517.333,1.255,1.255,0,0,1-.01.874Z" transform="translate(-1832.824 -895.914)"/>
    <path id="Path_237" data-name="Path 237" class="cls-7" d="M2063.569,917.184c-1.653,3.645-3.351,6.4-3.839,6.774l.265.348c.682-.519,2.5-3.7,3.973-6.941a17.732,17.732,0,0,1,2.537-3.85c0-.041.086-.327.114-.428a3.387,3.387,0,0,1-.4-.146A25.775,25.775,0,0,0,2063.569,917.184Z" transform="translate(-1839.453 -815.329)"/>
    <path id="Path_238" data-name="Path 238" class="cls-16" d="M2057.873,1009.227a1.249,1.249,0,0,0-.923.907c-.155.487.008.867.362.856s.769-.42.924-.906S2058.228,1009.212,2057.873,1009.227Z" transform="translate(-1836.917 -901.318)"/>
    <path id="Path_239" data-name="Path 239" class="cls-16" d="M2056.669,1008a1.269,1.269,0,0,0-.939.915.914.914,0,0,0-.01.618.375.375,0,0,0,.382.244.75.75,0,0,0,.4-.157,1.22,1.22,0,0,0,.148-.125,1.571,1.571,0,0,0,.389-.633C2057.192,1008.371,2057.025,1007.985,2056.669,1008Z" transform="translate(-1835.828 -900.221)"/>
    <path id="Path_240" data-name="Path 240" class="cls-27" d="M2056.362,1008.257a1.128,1.128,0,0,0-.835.819c-.14.44.006.785.327.772a1.129,1.129,0,0,0,.835-.82C2056.829,1008.588,2056.682,1008.243,2056.362,1008.257Z" transform="translate(-1835.651 -900.452)"/>
    <path id="Path_241" data-name="Path 241" class="cls-16" d="M2055.722,1007.377a1.269,1.269,0,0,0-.939.916.91.91,0,0,0-.01.618.376.376,0,0,0,.382.244.758.758,0,0,0,.4-.157,1.325,1.325,0,0,0,.148-.125,1.57,1.57,0,0,0,.389-.634C2056.25,1007.749,2056.083,1007.362,2055.722,1007.377Zm.222.868a1.244,1.244,0,0,1-.31.506.681.681,0,0,1-.42.214h0a.29.29,0,0,1-.292-.188.727.727,0,0,1,.01-.494,1.215,1.215,0,0,1,.428-.6.58.58,0,0,1,.306-.121C2055.941,1007.55,2056.068,1007.858,2055.944,1008.245Z" transform="translate(-1834.981 -899.666)"/>
    <rect id="Rectangle_653" data-name="Rectangle 653" class="cls-17" width="2.805" height="52.681" transform="translate(268.253 134.899)"/>
    <rect id="Rectangle_654" data-name="Rectangle 654" class="cls-18" width="2.805" height="52.681" transform="translate(265.447 134.899)"/>
    <rect id="Rectangle_655" data-name="Rectangle 655" class="cls-17" width="2.805" height="52.681" transform="translate(232.124 134.899)"/>
    <rect id="Rectangle_656" data-name="Rectangle 656" class="cls-18" width="2.805" height="52.681" transform="translate(229.318 134.899)"/>
    <path id="Path_242" data-name="Path 242" class="cls-18" d="M1461.42,1246.83v37.915h114.766V1246.83H1461.42Z" transform="translate(-1305.129 -1113.511)"/>
    <path id="Path_243" data-name="Path 243" class="cls-17" d="M2172.05,1246.83v37.915h38.768V1246.83H2172.05Z" transform="translate(-1939.761 -1113.511)"/>
    <rect id="Rectangle_657" data-name="Rectangle 657" class="cls-8" width="116.955" height="3.05" transform="translate(154.815 130.964)"/>
    <rect id="Rectangle_658" data-name="Rectangle 658" class="cls-28" width="40.811" height="3.05" transform="translate(230.959 130.964)"/>
    <path id="Path_244" data-name="Path 244" class="cls-7" d="M1466.713,941.2a.614.614,0,0,0-.624-.5h-32.983a.6.6,0,0,0-.623.65l3.286,22.326a.613.613,0,0,0,.624.5h32.983a.594.594,0,0,0,.624-.649Z" transform="translate(-1279.281 -840.126)"/>
    <path id="Path_245" data-name="Path 245" class="cls-7" d="M1557.14,1214.415h11.467q.01-.622.015-1.245H1557.14Z" transform="translate(-1390.612 -1083.451)"/>
    <path id="Path_246" data-name="Path 246" class="cls-8" d="M1524.357,1108.631a.642.642,0,0,0,.629.779h9.658l.749-13.819h-8.235Z" transform="translate(-1361.322 -978.446)"/>
    <path id="Path_247" data-name="Path 247" class="cls-7" d="M1525.029,1220.095h9.658l.031-.565H1524.39A.641.641,0,0,0,1525.029,1220.095Z" transform="translate(-1361.365 -1089.131)"/>
    <path id="Path_248" data-name="Path 248" class="cls-7" d="M1607.937,1108.631a.642.642,0,0,0,.63.779h.719l.749-13.819h-1.029Z" transform="translate(-1435.963 -978.446)"/>
    <path id="Path_249" data-name="Path 249" class="cls-21" d="M2187.154,835.194a2.765,2.765,0,0,0-1.044,2.273c0,1.279,1.627.761,2.217.331.865-.631,1.48-2.4.885-3.064S2187.6,834.792,2187.154,835.194Z" transform="translate(-1952.317 -745.246)"/>
    <rect id="Rectangle_659" data-name="Rectangle 659" class="cls-29" width="48.896" height="43.067" transform="translate(293.121 144.515)"/>
    <rect id="Rectangle_660" data-name="Rectangle 660" class="cls-2" width="48.896" height="43.067" transform="translate(283.596 144.515)"/>
    <rect id="Rectangle_661" data-name="Rectangle 661" class="cls-29" width="0.572" height="37.88" transform="translate(307.758 149.701)"/>
    <rect id="Rectangle_662" data-name="Rectangle 662" class="cls-29" width="48.896" height="1.156" transform="translate(283.596 148.853)"/>
    <path id="Path_250" data-name="Path 250" class="cls-30" d="M2941.341,1198.54h-4.358a1.936,1.936,0,0,0-1.934,1.934v3.706h8.229v-3.706A1.936,1.936,0,0,0,2941.341,1198.54Zm.655,4.361h-5.668v-2.428a.657.657,0,0,1,.656-.656h4.358a.656.656,0,0,1,.655.656Z" transform="translate(-2621.161 -1070.386)"/>
    <rect id="Rectangle_663" data-name="Rectangle 663" class="cls-7" width="18.991" height="12.577" rx="6.288" transform="translate(309.361 131.937)"/>
    <rect id="Rectangle_664" data-name="Rectangle 664" class="cls-8" width="18.991" height="12.577" rx="6.288" transform="translate(307.65 131.937)"/>
    <circle id="Ellipse_25" data-name="Ellipse 25" class="cls-3" cx="4.359" cy="4.359" r="4.359" transform="matrix(0.849, -0.529, 0.529, 0.849, 311.524, 135.39)"/>
    <path id="Path_251" data-name="Path 251" class="cls-30" d="M2961.045,1268.11a.535.535,0,0,0-.535.535v4.2a.535.535,0,0,0,1.07,0v-4.2A.535.535,0,0,0,2961.045,1268.11Z" transform="translate(-2643.9 -1132.516)"/>
    <path id="Path_252" data-name="Path 252" class="cls-30" d="M2945.612,1287.73h-4.2a.535.535,0,0,0,0,1.069h4.2a.535.535,0,1,0,0-1.069Z" transform="translate(-2626.368 -1150.037)"/>
    <rect id="Rectangle_665" data-name="Rectangle 665" class="cls-31" width="11.189" height="6.178" transform="translate(303.568 138.335)"/>
    <rect id="Rectangle_666" data-name="Rectangle 666" class="cls-30" width="11.189" height="4.485" transform="translate(303.568 138.335)"/>
    <path id="Path_253" data-name="Path 253" class="cls-31" d="M2861.94,1303.236l-.56.561.849.849.562-.56a.6.6,0,0,0-.855-.855Z" transform="translate(-2555.371 -1163.722)"/>
    <path id="Path_254" data-name="Path 254" class="cls-31" d="M2853.2,1311.987a.6.6,0,1,0,.849.849l.561-.56-.849-.855Z" transform="translate(-2547.91 -1171.194)"/>
    <rect id="Rectangle_667" data-name="Rectangle 667" class="cls-31" width="6.401" height="7.73" rx="3.2" transform="translate(295.674 136.785)"/>
    <rect id="Rectangle_668" data-name="Rectangle 668" class="cls-31" width="4.423" height="2.153" transform="translate(296.662 135.378)"/>
    <rect id="Rectangle_669" data-name="Rectangle 669" class="cls-30" width="5.195" height="1.591" rx="0.796" transform="translate(296.276 134.862)"/>
    <rect id="Rectangle_670" data-name="Rectangle 670" class="cls-30" width="4.809" height="3.634" transform="translate(296.47 139.111)"/>
    <rect id="Rectangle_671" data-name="Rectangle 671" class="cls-31" width="6.401" height="7.73" rx="3.2" transform="translate(287.951 136.785)"/>
    <rect id="Rectangle_672" data-name="Rectangle 672" class="cls-31" width="4.423" height="2.153" transform="translate(288.94 135.378)"/>
    <rect id="Rectangle_673" data-name="Rectangle 673" class="cls-30" width="5.195" height="1.591" rx="0.796" transform="translate(288.553 134.862)"/>
    <rect id="Rectangle_674" data-name="Rectangle 674" class="cls-30" width="4.809" height="3.634" transform="translate(288.746 139.111)"/>
    <path id="Path_255" data-name="Path 255" class="cls-32" d="M409.062,1176.132c6.524-12.417-.284-49.082-.284-49.082C402.043,1164.368,409.062,1176.132,409.062,1176.132Z" transform="translate(-362.453 -1006.541)"/>
    <path id="Path_256" data-name="Path 256" class="cls-6" d="M446.833,1291.706c-12.192,19.036-11.176,31.431-11.176,31.431C444.164,1316.238,447.641,1290.444,446.833,1291.706Z" transform="translate(-389.047 -1153.549)"/>
    <path id="Path_257" data-name="Path 257" class="cls-6" d="M301.92,1267.15a162.719,162.719,0,0,1,5.955,16.437c1.384,5.075,6.951,14.624,8.366,15.451C316.241,1299.039,316.1,1275.155,301.92,1267.15Z" transform="translate(-269.631 -1131.658)"/>
    <path id="Path_258" data-name="Path 258" class="cls-6" d="M443.78,1428.831s7.657-.276,14.463-19.591A32.823,32.823,0,0,0,443.78,1428.831Z" transform="translate(-396.32 -1258.553)"/>
    <path id="Path_259" data-name="Path 259" class="cls-32" d="M301.92,1424.72a46.934,46.934,0,0,0,12.856,17.248C318.084,1433.273,301.92,1424.72,301.92,1424.72Z" transform="translate(-269.631 -1272.377)"/>
    <path id="Path_260" data-name="Path 260" class="cls-29" d="M357.6,1549.44H347.45l3.56,21.9h14.4l3.56-21.9H357.6Z" transform="translate(-310.292 -1383.759)"/>
    <path id="Path_261" data-name="Path 261" class="cls-33" d="M355.007,1558.5a45.86,45.86,0,0,1-1.682-9.06H347.45l3.56,21.9h9.046q-.535-.955-1.007-1.938A66.7,66.7,0,0,1,355.007,1558.5Z" transform="translate(-310.292 -1383.759)"/>
    <path id="Path_262" data-name="Path 262" class="cls-34" d="M905.133,577.89H871.494a4.363,4.363,0,0,0-4.363,4.363V599.1l-6.491,6.377h44.489a4.362,4.362,0,0,0,4.363-4.362V582.253A4.363,4.363,0,0,0,905.133,577.89Z" transform="translate(-768.599 -516.111)"/>
    <rect id="Rectangle_675" data-name="Rectangle 675" class="cls-2" width="30.088" height="1.679" transform="translate(104.671 68.676)"/>
    <rect id="Rectangle_676" data-name="Rectangle 676" class="cls-2" width="30.088" height="1.679" transform="translate(104.671 72.716)"/>
    <rect id="Rectangle_677" data-name="Rectangle 677" class="cls-2" width="30.088" height="1.679" transform="translate(104.671 76.755)"/>
    <rect id="Rectangle_678" data-name="Rectangle 678" class="cls-2" width="19.993" height="1.679" transform="translate(104.671 80.795)"/>
    <path id="Path_263" data-name="Path 263" class="cls-5" d="M1657.736,582.2a4.366,4.366,0,0,0-4.366-4.365h-33.655a4.365,4.365,0,0,0-4.364,4.365V601.07a4.366,4.366,0,0,0,4.364,4.37h44.515l-6.494-6.381Z" transform="translate(-1442.597 -516.057)"/>
    <circle id="Ellipse_26" data-name="Ellipse 26" class="cls-3" cx="10.688" cy="10.688" r="10.688" transform="translate(178.777 75.574) rotate(-45)"/>
    <path id="Path_264" data-name="Path 264" class="cls-34" d="M1756.352,671.543l-3.435-3.435-1.627,1.628,5.062,5.062,8.14-8.14-1.627-1.628Z" transform="translate(-1563.999 -593.932)"/>
    <g id="Group_158" data-name="Group 158" class="cls-35" transform="translate(132.507 44.991)">
      <path id="Path_265" data-name="Path 265" class="cls-5" d="M1239.828,420.91h-.006a.805.805,0,1,0,.006,0Z" transform="translate(-1239.02 -420.91)"/>
      <path id="Path_266" data-name="Path 266" class="cls-5" d="M1355.7,420.91h-.011a.8.8,0,1,0,0,1.6h.011a.8.8,0,1,0,0-1.6Z" transform="translate(-1342.498 -420.91)"/>
      <path id="Path_267" data-name="Path 267" class="cls-5" d="M1384.683,420.91h-.01a.8.8,0,1,0,0,1.6h.01a.8.8,0,1,0,0-1.6Z" transform="translate(-1368.379 -420.91)"/>
      <path id="Path_268" data-name="Path 268" class="cls-5" d="M1326.724,420.91h-.012a.8.8,0,1,0,0,1.6h.012a.8.8,0,1,0,0-1.6Z" transform="translate(-1316.618 -420.91)"/>
      <path id="Path_269" data-name="Path 269" class="cls-5" d="M1297.744,420.91h-.012a.8.8,0,1,0,0,1.6h.012a.8.8,0,1,0,0-1.6Z" transform="translate(-1290.737 -420.91)"/>
      <path id="Path_270" data-name="Path 270" class="cls-5" d="M1268.764,420.91h-.012a.8.8,0,1,0,0,1.6h.012a.8.8,0,1,0,0-1.6Z" transform="translate(-1264.856 -420.91)"/>
      <path id="Path_271" data-name="Path 271" class="cls-5" d="M1529.574,420.91h-.012a.8.8,0,0,0,0,1.6h.012a.8.8,0,1,0,0-1.6Z" transform="translate(-1497.774 -420.91)"/>
      <path id="Path_272" data-name="Path 272" class="cls-5" d="M1500.594,420.91h-.012a.8.8,0,0,0,0,1.6h.012a.8.8,0,1,0,0-1.6Z" transform="translate(-1471.893 -420.91)"/>
      <path id="Path_273" data-name="Path 273" class="cls-5" d="M1471.614,420.91h-.012a.8.8,0,1,0,0,1.6h.012a.8.8,0,1,0,0-1.6Z" transform="translate(-1446.013 -420.91)"/>
      <path id="Path_274" data-name="Path 274" class="cls-5" d="M1442.634,420.91h-.012a.8.8,0,0,0,0,1.6h.012a.8.8,0,0,0,0-1.6Z" transform="translate(-1420.132 -420.91)"/>
      <path id="Path_275" data-name="Path 275" class="cls-5" d="M1413.654,420.91h-.012a.8.8,0,0,0,0,1.6h.012a.8.8,0,1,0,0-1.6Z" transform="translate(-1394.251 -420.91)"/>
      <path id="Path_276" data-name="Path 276" class="cls-5" d="M1558.6,420.909h0a.825.825,0,1,1-.005,0Z" transform="translate(-1523.708 -420.909)"/>
      <path id="Path_277" data-name="Path 277" class="cls-5" d="M1558.592,694.22a.8.8,0,0,0-.8.8v.012a.8.8,0,1,0,1.6,0v-.012A.8.8,0,0,0,1558.592,694.22Z" transform="translate(-1523.699 -664.991)"/>
      <path id="Path_278" data-name="Path 278" class="cls-5" d="M1558.592,724.59a.8.8,0,0,0-.8.8v.013a.8.8,0,0,0,1.6,0v-.013A.8.8,0,0,0,1558.592,724.59Z" transform="translate(-1523.699 -692.113)"/>
      <path id="Path_279" data-name="Path 279" class="cls-5" d="M1558.592,785.34a.8.8,0,0,0-.8.8v.017a.8.8,0,0,0,1.6,0v-.012a.8.8,0,0,0-.8-.807Z" transform="translate(-1523.699 -746.366)"/>
      <path id="Path_280" data-name="Path 280" class="cls-5" d="M1558.592,755a.8.8,0,0,0-.8.8v.012a.8.8,0,0,0,1.6,0V755.8a.8.8,0,0,0-.8-.8Z" transform="translate(-1523.699 -719.271)"/>
      <path id="Path_281" data-name="Path 281" class="cls-5" d="M1558.592,876.46a.8.8,0,0,0-.8.8v.012a.8.8,0,0,0,1.6,0v-.008a.8.8,0,0,0-.8-.806Z" transform="translate(-1523.699 -827.741)"/>
      <path id="Path_282" data-name="Path 282" class="cls-5" d="M1558.592,815.71a.8.8,0,0,0-.8.8v.013a.8.8,0,0,0,1.6,0v-.013a.8.8,0,0,0-.8-.8Z" transform="translate(-1523.699 -773.488)"/>
      <path id="Path_283" data-name="Path 283" class="cls-5" d="M1558.592,846.09a.8.8,0,0,0-.8.8v.012a.8.8,0,0,0,1.6,0v-.012A.8.8,0,0,0,1558.592,846.09Z" transform="translate(-1523.699 -800.619)"/>
      <path id="Path_284" data-name="Path 284" class="cls-5" d="M1558.592,451.23a.8.8,0,0,0-.8.8v.012a.8.8,0,0,0,1.6,0v-.012A.8.8,0,0,0,1558.592,451.23Z" transform="translate(-1523.699 -447.987)"/>
      <path id="Path_285" data-name="Path 285" class="cls-5" d="M1558.592,542.35a.8.8,0,0,0-.8.8v.016a.8.8,0,0,0,1.6,0v-.012a.8.8,0,0,0-.8-.806Z" transform="translate(-1523.699 -529.363)"/>
      <path id="Path_286" data-name="Path 286" class="cls-5" d="M1558.592,512a.8.8,0,0,0-.8.8v.012a.8.8,0,0,0,1.6,0V512.8a.8.8,0,0,0-.8-.8Z" transform="translate(-1523.699 -502.258)"/>
      <path id="Path_287" data-name="Path 287" class="cls-5" d="M1558.592,481.6a.8.8,0,0,0-.8.8v.013a.8.8,0,0,0,1.6,0V482.4a.8.8,0,0,0-.8-.8Z" transform="translate(-1523.699 -475.109)"/>
      <path id="Path_288" data-name="Path 288" class="cls-5" d="M1558.592,663.85a.8.8,0,0,0-.8.8v.012a.8.8,0,1,0,1.6,0v-.012a.8.8,0,0,0-.8-.8Z" transform="translate(-1523.699 -637.869)"/>
      <path id="Path_289" data-name="Path 289" class="cls-5" d="M1558.592,572.72a.8.8,0,0,0-.8.8v.013a.8.8,0,1,0,1.6,0v-.013A.8.8,0,0,0,1558.592,572.72Z" transform="translate(-1523.699 -556.485)"/>
      <path id="Path_290" data-name="Path 290" class="cls-5" d="M1558.592,633.47a.8.8,0,0,0-.8.8v.012a.8.8,0,1,0,1.6,0v-.009a.8.8,0,0,0-.8-.805Z" transform="translate(-1523.699 -610.738)"/>
      <path id="Path_291" data-name="Path 291" class="cls-5" d="M1558.592,603.1a.8.8,0,0,0-.8.8v.012a.8.8,0,1,0,1.6,0V603.9A.8.8,0,0,0,1558.592,603.1Z" transform="translate(-1523.699 -583.616)"/>
      <path id="Path_292" data-name="Path 292" class="cls-5" d="M1558.557,906.86a.8.8,0,1,0,.8.805v-.006a.8.8,0,0,0-.8-.8Z" transform="translate(-1523.664 -854.89)"/>
    </g>
    <path id="Path_293" data-name="Path 293" class="cls-36" d="M1419.546,349.57a1.936,1.936,0,1,0,1.936,1.936A1.936,1.936,0,0,0,1419.546,349.57Z" transform="translate(-1266.004 -312.209)"/>
    <path id="Path_294" data-name="Path 294" class="cls-37" d="M1481.706,349.57a1.936,1.936,0,1,0,1.936,1.936A1.936,1.936,0,0,0,1481.706,349.57Z" transform="translate(-1321.517 -312.209)"/>
    <path id="Path_295" data-name="Path 295" class="cls-5" d="M1543.836,349.57a1.936,1.936,0,1,0,1.936,1.936A1.936,1.936,0,0,0,1543.836,349.57Z" transform="translate(-1377.002 -312.209)"/>
    <rect id="Rectangle_679" data-name="Rectangle 679" class="cls-38" width="19.189" height="3.243" transform="translate(60.121 43.743)"/>
    <rect id="Rectangle_680" data-name="Rectangle 680" class="cls-38" width="15.95" height="3.243" transform="translate(107.947 43.743)"/>
    <path id="Rectangle_681" data-name="Rectangle 681" class="cls-39" d="M0,0H374.833a0,0,0,0,1,0,0V18.286a8,8,0,0,1-8,8H8a8,8,0,0,1-8-8V0A0,0,0,0,1,0,0Z" transform="translate(0 187.58)"/>
  </g>
</svg>
